# xmcd
#
# Track frame offsets: 
#        150
#        15455
#        31860
#        51585
#        68497
#        87685
#        103250
#        127835
#        142067
#        160967
#        180365
#        200670
#        223190
#        240797
#        257359
#        275307
#
# Disc length: 4022 seconds
#
# Revision: 4
# Processed by: cddbd v1.5.1PL2 Copyright (c) Steve Scherf et al.
# Submitted via: ExactAudioCopy v0.90b4
#
DISCID=dd0fb410
DTITLE=Various Artist - Era Uma Vez... - Internacional (OST)
DYEAR=1998
DGENRE=Soundtrack
TTITLE0=Aqua - My Oh My
TTITLE1=Boyzone - All That I Need
TTITLE2=Dakota Moon - A Promisse I Make
TTITLE3=Lori Carson - I Saw The Light
TTITLE4=Fastball - The Way
TTITLE5=Robyn - Show Me Love
TTITLE6=All Saints - Never Ever
TTITLE7=Blackbox - The Beat Of Your Heart
TTITLE8=Gabrielle - Love Me Baby
TTITLE9=The Corrs - Dreams
TTITLE10=Two 4 You - All I Have To Give
TTITLE11=Marysa Alfaia - F... Comme Femme
TTITLE12=Cristian - Lo Mejor De Mi
TTITLE13=D-Soul - Without Love
TTITLE14=Don Bonnechi - Don't Leave Without Goodbye
TTITLE15=Orion Storn - Bitter Sweet Symphony
EXTD=
EXTT0=
EXTT1=
EXTT2=
EXTT3=
EXTT4=
EXTT5=
EXTT6=
EXTT7=
EXTT8=
EXTT9=
EXTT10=
EXTT11=
EXTT12=
EXTT13=
EXTT14=
EXTT15=
PLAYORDER=
